<svg xmlns="http://www.w3.org/2000/svg" width="900" height="248" viewBox="0 0 900 248" font-family="Helvetica, Arial, sans-serif">
  <rect width="900" height="248" fill="#f3f4f6"/>
  <text x="35" y="44" font-size="22" font-weight="700" fill="#111827">Punkt B - Vorschlag: 5 Platzfarben (helle Tints)</text>

  <!-- P1 -->
  <rect x="35"  y="70" width="150" height="92" rx="16" fill="#dcfce7"/>
  <text x="110" y="132" font-size="40" font-weight="800" fill="#15803d" text-anchor="middle">P1</text>
  <text x="110" y="190" font-size="14" font-weight="600" fill="#374151" text-anchor="middle">Platz 1</text>
  <text x="110" y="210" font-size="12" fill="#9ca3af" text-anchor="middle">#dcfce7</text>

  <!-- P2 -->
  <rect x="205" y="70" width="150" height="92" rx="16" fill="#e0f2fe"/>
  <text x="280" y="132" font-size="40" font-weight="800" fill="#0369a1" text-anchor="middle">P2</text>
  <text x="280" y="190" font-size="14" font-weight="600" fill="#374151" text-anchor="middle">Platz 2</text>
  <text x="280" y="210" font-size="12" fill="#9ca3af" text-anchor="middle">#e0f2fe</text>

  <!-- P3 -->
  <rect x="375" y="70" width="150" height="92" rx="16" fill="#fef3c7"/>
  <text x="450" y="132" font-size="40" font-weight="800" fill="#b45309" text-anchor="middle">P3</text>
  <text x="450" y="190" font-size="14" font-weight="600" fill="#374151" text-anchor="middle">Platz 3</text>
  <text x="450" y="210" font-size="12" fill="#9ca3af" text-anchor="middle">#fef3c7</text>

  <!-- GS -->
  <rect x="545" y="70" width="150" height="92" rx="16" fill="#ffe4e6"/>
  <text x="620" y="132" font-size="40" font-weight="800" fill="#be123c" text-anchor="middle">GS</text>
  <text x="620" y="190" font-size="14" font-weight="600" fill="#374151" text-anchor="middle">Grundschule</text>
  <text x="620" y="210" font-size="12" fill="#9ca3af" text-anchor="middle">#ffe4e6</text>

  <!-- KuRa -->
  <rect x="715" y="70" width="150" height="92" rx="16" fill="#ede9fe"/>
  <text x="790" y="132" font-size="40" font-weight="800" fill="#6d28d9" text-anchor="middle">KuRa</text>
  <text x="790" y="190" font-size="14" font-weight="600" fill="#374151" text-anchor="middle">Kunstrasen</text>
  <text x="790" y="210" font-size="12" fill="#9ca3af" text-anchor="middle">#ede9fe</text>
</svg>
