<svg xmlns="http://www.w3.org/2000/svg" width="900" height="640" viewBox="0 0 900 640" font-family="Helvetica, Arial, sans-serif">
  <defs>
    <filter id="sh" x="-20%" y="-20%" width="140%" height="140%">
      <feDropShadow dx="0" dy="2" stdDeviation="3" flood-color="#000000" flood-opacity="0.08"/>
    </filter>
    <clipPath id="b1"><rect x="30" y="92"  width="840" height="150" rx="16"/></clipPath>
    <clipPath id="b2"><rect x="30" y="262" width="840" height="150" rx="16"/></clipPath>
    <clipPath id="b3"><rect x="30" y="432" width="840" height="150" rx="16"/></clipPath>
  </defs>

  <rect width="900" height="640" fill="#f3f4f6"/>

  <text x="30" y="42" font-size="23" font-weight="700" fill="#111827">Vorschlag 2 — Farbige Kopfleiste, Badge unten rechts</text>
  <text x="30" y="68" font-size="14" fill="#6b7280">Platz als farbige Kopfleiste oben. Darunter gross Team und Gegner. Typ / "Antrag" als Pille unten rechts.</text>

  <!-- ===== Karte 1: Pflichtspiel ===== -->
  <g clip-path="url(#b1)">
    <rect x="30" y="92" width="840" height="150" fill="#ffffff"/>
    <rect x="30" y="92" width="840" height="40" fill="#d97706"/>
  </g>
  <rect x="30" y="92" width="840" height="150" rx="16" fill="none" stroke="#eceef1" filter="url(#sh)"/>
  <text x="48" y="118" font-size="16" font-weight="700" fill="#ffffff">Platz 3</text>
  <text x="852" y="118" font-size="13" font-weight="600" fill="#fde68a" text-anchor="end">P3</text>

  <circle cx="52" cy="166" r="7" fill="#4f46e5"/>
  <text x="68" y="175" font-size="26" font-weight="700" fill="#111827">U16 <tspan fill="#9ca3af" font-weight="400">–</tspan> <tspan fill="#1d4ed8">FC Hamburg</tspan></text>

  <g transform="translate(44,194)" stroke="#6b7280" stroke-width="1.6" fill="none" stroke-linecap="round"><circle cx="8" cy="8" r="6.5"/><path d="M8 4.3V8l2.6 1.6"/></g>
  <text x="68" y="208" font-size="15" fill="#4b5563">Dienstag, 18:00 – 20:00 Uhr</text>
  <g transform="translate(300,194)" stroke="#6b7280" stroke-width="1.6" fill="none" stroke-linecap="round" stroke-linejoin="round"><path d="M8 14.5s5-4.2 5-8a5 5 0 0 0-10 0c0 3.8 5 8 5 8z"/><circle cx="8" cy="6.5" r="1.9"/></g>
  <text x="324" y="208" font-size="15" fill="#4b5563">ganzer Platz  ·  Kabine 1</text>

  <rect x="726" y="196" width="130" height="32" rx="16" fill="#dbeafe"/>
  <text x="791" y="217" font-size="14" font-weight="600" fill="#1d4ed8" text-anchor="middle">Pflichtspiel</text>

  <!-- ===== Karte 2: Training ===== -->
  <g clip-path="url(#b2)">
    <rect x="30" y="262" width="840" height="150" fill="#ffffff"/>
    <rect x="30" y="262" width="840" height="40" fill="#16a34a"/>
  </g>
  <rect x="30" y="262" width="840" height="150" rx="16" fill="none" stroke="#eceef1" filter="url(#sh)"/>
  <text x="48" y="288" font-size="16" font-weight="700" fill="#ffffff">Platz 2</text>
  <text x="852" y="288" font-size="13" font-weight="600" fill="#bbf7d0" text-anchor="end">P2</text>

  <circle cx="52" cy="336" r="7" fill="#0d9488"/>
  <text x="68" y="345" font-size="26" font-weight="700" fill="#111827">U13</text>

  <g transform="translate(44,364)" stroke="#6b7280" stroke-width="1.6" fill="none" stroke-linecap="round"><circle cx="8" cy="8" r="6.5"/><path d="M8 4.3V8l2.6 1.6"/></g>
  <text x="68" y="378" font-size="15" fill="#4b5563">Donnerstag, 17:00 – 18:30 Uhr</text>
  <g transform="translate(300,364)" stroke="#6b7280" stroke-width="1.6" fill="none" stroke-linecap="round" stroke-linejoin="round"><path d="M8 14.5s5-4.2 5-8a5 5 0 0 0-10 0c0 3.8 5 8 5 8z"/><circle cx="8" cy="6.5" r="1.9"/></g>
  <text x="324" y="378" font-size="15" fill="#4b5563">Links  ·  Kabine 2</text>
  <g transform="translate(44,388)" stroke="#6b7280" stroke-width="1.6" fill="none" stroke-linecap="round"><circle cx="8" cy="5.5" r="2.9"/><path d="M3 13.6a5 5 0 0 1 10 0"/></g>
  <text x="68" y="402" font-size="15" fill="#4b5563">Anna Schmidt</text>

  <rect x="746" y="366" width="110" height="32" rx="16" fill="#dcfce7"/>
  <text x="801" y="387" font-size="14" font-weight="600" fill="#15803d" text-anchor="middle">Training</text>

  <!-- ===== Karte 3: Antrag (Freundschaftsspiel) ===== -->
  <g clip-path="url(#b3)">
    <rect x="30" y="432" width="840" height="150" fill="#ffffff"/>
    <rect x="30" y="432" width="840" height="40" fill="#dc2626"/>
  </g>
  <rect x="30" y="432" width="840" height="150" rx="16" fill="none" stroke="#fbbf24" stroke-width="2" stroke-dasharray="7 5" filter="url(#sh)"/>
  <text x="48" y="458" font-size="16" font-weight="700" fill="#ffffff">Platz 1</text>
  <text x="852" y="458" font-size="13" font-weight="600" fill="#fecaca" text-anchor="end">P1</text>

  <circle cx="52" cy="506" r="7" fill="#eab308"/>
  <text x="68" y="515" font-size="26" font-weight="700" fill="#111827">U9 <tspan fill="#9ca3af" font-weight="400">–</tspan> <tspan fill="#a16207">SV Beispiel</tspan></text>

  <g transform="translate(44,534)" stroke="#6b7280" stroke-width="1.6" fill="none" stroke-linecap="round"><circle cx="8" cy="8" r="6.5"/><path d="M8 4.3V8l2.6 1.6"/></g>
  <text x="68" y="548" font-size="15" fill="#4b5563">Samstag, 10:00 – 11:30 Uhr</text>
  <g transform="translate(300,534)" stroke="#6b7280" stroke-width="1.6" fill="none" stroke-linecap="round" stroke-linejoin="round"><path d="M8 14.5s5-4.2 5-8a5 5 0 0 0-10 0c0 3.8 5 8 5 8z"/><circle cx="8" cy="6.5" r="1.9"/></g>
  <text x="324" y="548" font-size="15" fill="#4b5563">ganzer Platz</text>

  <rect x="612" y="536" width="100" height="32" rx="16" fill="#fef08a"/>
  <text x="662" y="557" font-size="14" font-weight="700" fill="#854d0e" text-anchor="middle">Antrag</text>
  <rect x="722" y="536" width="134" height="32" rx="16" fill="#fef9c3"/>
  <text x="789" y="557" font-size="14" font-weight="600" fill="#a16207" text-anchor="middle">Freundschaftsspiel</text>
</svg>
